<svg width="16" height="16" viewBox="0 0 16 16" fill="none" xmlns="http://www.w3.org/2000/svg">
<g id="u:search">
<path id="Vector" d="M11.61 10.7604L11.3285 11.1114L11.6479 11.4283L14.1163 13.8767C14.1448 13.9074 14.1607 13.9479 14.1607 13.9899C14.1607 14.0321 14.1448 14.0726 14.1161 14.1034C14.1011 14.118 14.0835 14.1296 14.0642 14.1377C14.0438 14.1461 14.0221 14.1505 14.0001 14.1505C13.9781 14.1505 13.9563 14.1461 13.936 14.1377C13.9157 14.1292 13.8972 14.1168 13.8817 14.1012L13.8803 14.0997L11.4269 11.6464L11.1101 11.3295L10.7606 11.6099C9.66326 12.4899 8.27047 12.9161 6.86858 12.8008C5.46669 12.6855 4.16226 12.0375 3.22351 10.9899C2.28476 9.94239 1.78304 8.57499 1.82152 7.16889C1.85999 5.7628 2.43574 4.42488 3.43037 3.43025C4.425 2.43562 5.76292 1.85987 7.16902 1.8214C8.57511 1.78292 9.94251 2.28464 10.99 3.22339C12.0376 4.16214 12.6856 5.46657 12.8009 6.86846C12.9163 8.27035 12.4901 9.66314 11.61 10.7604ZM4.46295 11.6292C5.3126 12.1969 6.31152 12.4999 7.33339 12.4999C8.70368 12.4999 10.0178 11.9556 10.9868 10.9867C11.9557 10.0177 12.5001 8.70355 12.5001 7.33327C12.5001 6.3114 12.197 5.31248 11.6293 4.46282C11.0616 3.61317 10.2547 2.95094 9.31059 2.55989C8.3665 2.16884 7.32766 2.06652 6.32543 2.26588C5.32319 2.46524 4.40258 2.95731 3.68001 3.67988C2.95744 4.40246 2.46536 5.32307 2.266 6.3253C2.06664 7.32754 2.16896 8.36638 2.56001 9.31047C2.95107 10.2546 3.61329 11.0615 4.46295 11.6292Z" fill="black" stroke="#9A9D9D"/>
</g>
</svg>
